<svg version="1.0" xmlns="http://www.w3.org/2000/svg" width="240.000000pt" height="240.000000pt" viewBox="0 0 240.000000 240.000000" preserveAspectRatio="xMidYMid meet">

<g transform="translate(0.000000,240.000000) scale(0.100000,-0.100000)" fill="#0066B9" stroke="none" data-color-id="svg-1-el-0">
<path d="M405 1982 c-99 -34 -174 -118 -195 -217 -7 -33 -10 -235 -8 -595 3 -529 4 -546 24 -590 28 -59 95 -127 152 -153 47 -22 50 -22 822 -22 772 0 775 0 821 21 60 28 125 93 153 153 21 45 21 54 21 621 l0 575 -23 47 c-30 60 -95 125 -152 152 -44 21 -57 21 -805 23 -701 2 -764 1 -810 -15z m1545 -199 c16 -9 33 -27 39 -40 16 -35 15 -1053 -1 -1088 -26 -56 -5 -55 -788 -55 -783 0 -762 -1 -788 55 -18 40 -16 1061 2 1094 29 52 9 50 784 51 658 0 726 -2 752 -17z"/>
<path d="M639 1572 l-34 -30 -3 -337 -3 -336 35 -35 c44 -44 83 -45 128 -5 l33 29 3 196 3 196 37 -25 c46 -32 78 -32 125 0 l37 26 0 -192 0 -191 34 -34 c44 -44 83 -45 128 -5 l33 29 0 342 0 342 -33 29 c-58 52 -107 33 -217 -80 l-49 -51 -76 75 c-94 93 -128 104 -181 57z"/>
<path d="M1564 1590 c-12 -4 -31 -21 -43 -36 -20 -25 -21 -38 -21 -215 l0 -189 -40 26 c-50 33 -97 27 -134 -17 -49 -58 -40 -78 97 -216 67 -69 130 -129 141 -135 41 -22 85 0 184 95 164 158 182 199 117 264 -31 31 -40 35 -70 30 -20 -3 -49 -15 -65 -27 l-30 -21 0 191 0 192 -34 34 c-34 34 -61 41 -102 24z"/>
</g>
</svg>